<?xml version="1.0" encoding="utf-8"?>
<!-- Generator: Adobe Illustrator 24.0.1, SVG Export Plug-In . SVG Version: 6.00 Build 0)  -->
<svg version="1.1" id="Layer_1" xmlns="http://www.w3.org/2000/svg" xmlns:xlink="http://www.w3.org/1999/xlink" x="0px" y="0px"
	 viewBox="0 0 601.6 396.76" style="enable-background:new 0 0 601.6 396.76;" xml:space="preserve">
<style type="text/css">
	.st0{fill:#014D70;}
	.st1{fill:#537990;}
</style>
<g>
	<g>
		<g>
			<path class="st0" d="M-643.32,269.78v18.08h-2.06v-18.08H-643.32z"/>
			<path class="st0" d="M-630.19,287.86h-2.04v-18.08h1.74c4.33,0,5.55,1.56,10.73,8.48c4.89,6.55,5.58,7.53,8.38,7.53h0.29v-16.02
				h2.04v18.08h-1.74c-4.15,0-5.37-1.48-10.62-8.35c-5.18-6.77-5.76-7.66-8.48-7.66h-0.29V287.86z"/>
			<path class="st0" d="M-588.6,271.79c-5.6,0-7.53,1.37-7.53,6.13v1.03h18.82v1.82h-18.82v7.08h-2.04v-9.94
				c0-6.05,2.77-8.14,9.57-8.14h12v2.01H-588.6z"/>
			<path class="st0" d="M-543.07,278.82c0,7.4-4.47,9.28-12.4,9.28c-7.93,0-12.42-1.88-12.42-9.28s4.49-9.28,12.42-9.28
				C-547.54,269.54-543.07,271.42-543.07,278.82z M-545.16,278.82c0-6.24-3.7-7.32-10.31-7.32c-6.61,0-10.33,1.08-10.33,7.32
				c0,6.24,3.73,7.35,10.33,7.35C-548.86,286.17-545.16,285.06-545.16,278.82z"/>
			<path class="st0" d="M-532.93,269.78h15.49c4.39,0,6.47,2.33,6.47,5.42c0,2.62-1.53,4.39-4.02,4.94
				c2.38,0.63,3.54,2.27,3.54,4.36v3.36h-2.11v-3.38c0-1.93-1.29-3.44-4.04-3.44h-13.27v6.82h-2.06V269.78z M-517.28,279.22
				c3.17,0,4.23-2.01,4.23-3.81c0-1.77-1-3.81-4.23-3.81h-13.58v7.61H-517.28z"/>
			<path class="st0" d="M-498.71,272v15.86h-2.01v-18.08h1.96c0.77,0,1.11,0.4,1.45,0.79l9.65,11.18l9.62-11.18
				c0.34-0.4,0.69-0.79,1.45-0.79h1.96v18.08h-2.01V272l-10.23,11.81h-1.61L-498.71,272z"/>
			<path class="st0" d="M-440.66,287.86h-2.22l-2.62-5.36h-14.93l-2.62,5.36h-2.19l7.11-14.56c1.19-2.46,2.64-3.75,5.18-3.75
				c2.54,0,3.96,1.29,5.15,3.75L-440.66,287.86z M-449.8,273.75c-0.69-1.43-1.56-2.35-3.15-2.35c-1.61,0-2.48,0.93-3.17,2.35
				l-3.38,6.92h13.08L-449.8,273.75z M-451.44,263.23h2.38l-4.1,4.78h-1.85L-451.44,263.23z"/>
			<path class="st0" d="M-426.47,287.86v-16.23h-9.67v-1.85h21.38v1.85h-9.67v16.23H-426.47z"/>
			<path class="st0" d="M-403.77,269.78v18.08h-2.06v-18.08H-403.77z"/>
			<path class="st0" d="M-370.9,271.79h-14.17c-4.92,0-6.42,2.33-6.42,7.03c0,4.73,1.51,7.03,6.42,7.03h14.17v2.01h-14.17
				c-6.05,0-8.51-2.96-8.51-9.04c0-6.03,2.41-9.04,8.51-9.04h14.17V271.79z"/>
			<path class="st0" d="M-338.27,287.86h-2.22l-2.62-5.36h-14.93l-2.62,5.36h-2.19l7.11-14.56c1.19-2.46,2.64-3.75,5.18-3.75
				c2.54,0,3.94,1.29,5.15,3.75L-338.27,287.86z M-347.41,273.75c-0.69-1.43-1.56-2.35-3.15-2.35c-1.61,0-2.48,0.93-3.17,2.35
				l-3.38,6.92h13.08L-347.41,273.75z"/>
			<path class="st0" d="M-307.94,271.74c-4.49,0-6.29,2.03-6.42,6.16h20.17v1.85h-20.17c0.16,4.12,1.93,6.16,6.42,6.16h14.19v1.96
				h-14.19c-6.08,0-8.51-2.99-8.51-9.04c0-6.03,2.41-9.04,8.51-9.04h14.19v1.96H-307.94z"/>
			<path class="st0" d="M-254.51,286.01c3.01,0,4.41-1.06,4.41-2.96s-1.43-2.85-4.81-3.15l-8.96-0.74
				c-4.02-0.32-6.13-1.77-6.13-4.76c0-3.25,2.56-4.62,6.03-4.62h14.69v1.85h-14.85c-2.41,0-3.78,0.85-3.78,2.72
				c0,1.8,1.24,2.64,4.57,2.93l8.72,0.74c4.28,0.37,6.61,1.72,6.61,4.94c0,3.01-2.04,4.89-6.61,4.89h-15.75v-1.85H-254.51z"/>
			<path class="st0" d="M-236.2,269.78v18.08h-2.06v-18.08H-236.2z"/>
			<path class="st0" d="M-210.44,286.01c3.01,0,4.41-1.06,4.41-2.96s-1.43-2.85-4.81-3.15l-8.96-0.74
				c-4.02-0.32-6.13-1.77-6.13-4.76c0-3.25,2.56-4.62,6.03-4.62h14.69v1.85h-14.85c-2.41,0-3.78,0.85-3.78,2.72
				c0,1.8,1.24,2.64,4.57,2.93l8.72,0.74c4.28,0.37,6.61,1.72,6.61,4.94c0,3.01-2.04,4.89-6.61,4.89h-15.75v-1.85H-210.44z"/>
			<path class="st0" d="M-186.84,287.86v-16.23h-9.67v-1.85h21.38v1.85h-9.67v16.23H-186.84z"/>
			<path class="st0" d="M-159.18,271.74c-4.49,0-6.29,2.03-6.42,6.16h20.17v1.85h-20.17c0.16,4.12,1.93,6.16,6.42,6.16h14.19v1.96
				h-14.19c-6.08,0-8.51-2.99-8.51-9.04c0-6.03,2.41-9.04,8.51-9.04h14.19v1.96H-159.18z"/>
			<path class="st0" d="M-132.78,272v15.86h-2.01v-18.08h1.96c0.77,0,1.11,0.4,1.45,0.79l9.65,11.18l9.62-11.18
				c0.34-0.4,0.69-0.79,1.45-0.79h1.96v18.08h-2.01V272l-10.23,11.81h-1.61L-132.78,272z"/>
			<path class="st0" d="M-74.73,287.86h-2.22l-2.62-5.36H-94.5l-2.62,5.36h-2.19l7.11-14.56c1.19-2.46,2.64-3.75,5.18-3.75
				s3.94,1.29,5.15,3.75L-74.73,287.86z M-83.87,273.75c-0.69-1.43-1.56-2.35-3.15-2.35c-1.61,0-2.48,0.93-3.17,2.35l-3.38,6.92
				h13.08L-83.87,273.75z"/>
			<path class="st0" d="M-50.68,286.01c3.01,0,4.41-1.06,4.41-2.96s-1.43-2.85-4.81-3.15l-8.96-0.74c-4.02-0.32-6.13-1.77-6.13-4.76
				c0-3.25,2.56-4.62,6.03-4.62h14.69v1.85H-60.3c-2.41,0-3.78,0.85-3.78,2.72c0,1.8,1.24,2.64,4.57,2.93l8.72,0.74
				c4.28,0.37,6.61,1.72,6.61,4.94c0,3.01-2.04,4.89-6.61,4.89h-15.75v-1.85H-50.68z"/>
		</g>
		<path class="st0" d="M-1053.12,179.63h62.54c17.69,0,28.63,8,28.63,22.43c0,10.11-5.37,16.32-14.74,19.05
			c9.16,2.95,13.16,8.84,13.16,16.32v14.21h-15.58v-14.53c0-4-2.21-9.16-11.79-9.16h-47.16v23.69h-15.05V179.63z M-989.42,214.58
			c9.27,0,12.11-6.11,12.11-10.84c0-4.74-2.84-10.84-12.11-10.84h-48.64v21.69H-989.42z"/>
		<path class="st0" d="M-916.67,193.95c-14.11,0-18.32,5.37-19.37,14.95h75.17v13.48h-75.17c1.05,9.58,5.26,14.84,19.37,14.84h57.06
			v14.42h-57.06c-25.79,0-34.74-12.32-34.74-36s8.95-36.01,34.74-36.01h57.06v14.32H-916.67z"/>
		<path class="st0" d="M-757.65,194.27h-56.96c-17.27,0-19.37,7.58-19.37,21.37s2.11,21.27,19.37,21.27h56.96v14.74h-56.96
			c-25.9,0-34.74-12.32-34.74-36s8.84-36.01,34.74-36.01h56.96V194.27z"/>
		<path class="st0" d="M-671.26,251.64v-29.37h-60.43v29.37h-15.05v-72.01h15.05v29.27h60.43v-29.27h15.05v72.01H-671.26z"/>
		<path class="st1" d="M-553.61,194.27h-56.96c-17.26,0-19.37,7.58-19.37,21.37s2.11,21.27,19.37,21.27h56.96v14.74h-56.96
			c-25.9,0-34.74-12.32-34.74-36s8.84-36.01,34.74-36.01h56.96V194.27z"/>
		<path class="st1" d="M-508.6,193.95c-14.11,0-18.32,5.37-19.37,14.95h75.17v13.48h-75.17c1.05,9.58,5.26,14.84,19.37,14.84h57.06
			v14.42h-57.06c-25.79,0-34.74-12.32-34.74-36s8.95-36.01,34.74-36.01h57.06v14.32H-508.6z"/>
		<path class="st1" d="M-423.79,251.64h-15.05v-72.01h10.63c19.37,0,24.64,6.21,42.85,31.37c17.16,23.69,18.42,25.37,26.21,25.37
			h0.11v-56.75h15.05v72.01h-10.63c-17.79,0-23.16-5.68-42.85-31.48c-18.43-24.11-18.95-25.27-26.22-25.27h-0.11V251.64z"/>
		<path class="st1" d="M-296.93,251.64v-58.43h-35.8v-13.58h86.65v13.58h-35.8v58.43H-296.93z"/>
		<path class="st1" d="M-203.54,193.95c-14.11,0-18.32,5.37-19.37,14.95h75.17v13.48h-75.17c1.05,9.58,5.26,14.84,19.37,14.84h57.06
			v14.42h-57.06c-25.79,0-34.74-12.32-34.74-36s8.95-36.01,34.74-36.01h57.06v14.32H-203.54z"/>
		<path class="st1" d="M-134.95,179.63h62.54c17.69,0,28.64,8,28.64,22.43c0,10.11-5.37,16.32-14.74,19.05
			c9.16,2.95,13.16,8.84,13.16,16.32v14.21h-15.58v-14.53c0-4-2.21-9.16-11.79-9.16h-47.16v23.69h-15.05V179.63z M-71.26,214.58
			c9.27,0,12.11-6.11,12.11-10.84c0-4.74-2.84-10.84-12.11-10.84h-48.64v21.69H-71.26z"/>
	</g>
	<path class="st0" d="M-581.81,35.62l32.54,32.56l32.61-32.61c4.2-4.2,4.15-10.87,0.15-14.87c0,0-11.63-11.63-12.67-12.67
		C-540.23-3-558.29-3-569.36,7.98l-12.51,12.55C-586.02,24.68-585.96,31.47-581.81,35.62z"/>
	<path class="st0" d="M-516.76,107.83l-32.54-32.56l-32.61,32.61c-4.2,4.2-4.15,10.87-0.15,14.87c0,0,11.63,11.63,12.67,12.67
		c11.04,11.04,29.1,11.04,40.17,0.05l12.51-12.55C-512.55,118.77-512.61,111.98-516.76,107.83z"/>
	<path class="st1" d="M-585.39,104.25l32.56-32.54l-32.61-32.61c-4.2-4.2-10.87-4.15-14.87-0.15c0,0-11.63,11.63-12.67,12.67
		c-11.04,11.04-11.04,29.09-0.05,40.17l12.55,12.51C-596.33,108.46-589.54,108.4-585.39,104.25z"/>
	<path class="st0" d="M-513.18,39.2l-32.56,32.54l32.61,32.61c4.2,4.2,10.87,4.15,14.87,0.15c0,0,11.63-11.63,12.67-12.67
		c11.04-11.04,11.04-29.1,0.05-40.17l-12.55-12.52C-502.25,34.99-509.03,35.05-513.18,39.2z"/>
</g>
</svg>
